<?xml version="1.0" encoding="utf-8"?>
<!-- Generator: Adobe Illustrator 25.2.3, SVG Export Plug-In . SVG Version: 6.00 Build 0)  -->
<svg version="1.0" id="Layer_1" xmlns="http://www.w3.org/2000/svg" xmlns:xlink="http://www.w3.org/1999/xlink" x="0px" y="0px"
	 width="312.1px" height="190px" viewBox="0 0 312.1 190" style="enable-background:new 0 0 312.1 190;" xml:space="preserve"
	>
<g>
	<g>
		<g>
			<path style="fill:#849E74;" d="M8.5,95.9l28.8-33.5h10.9L18.1,97.2l33.5,36.4H40l-31.4-34v34H0V62.4h8.5V95.9z"/>
			<path style="fill:#849E74;" d="M65.4,65.8c3.2,0,5.8,2.6,5.8,5.8c0,3.2-2.6,5.8-5.8,5.8c-3.2,0-5.8-2.6-5.8-5.8
				C59.6,68.4,62.3,65.8,65.4,65.8z M61.1,86.6h8.5v47h-8.5V86.6z"/>
			<path style="fill:#849E74;" d="M124.9,103.4v30.2h-8.5v-28.8c0-8-5-11.5-11.3-11.5c-7.6,0-11.7,7.9-11.7,7.9v32.4h-8.5v-47h7.9
				v6.6c0,0,4.3-7.8,14.4-7.8C116.5,85.4,124.9,91.8,124.9,103.4z"/>
			<path style="fill:#849E74;" d="M141.5,119.5c0,0,5,7.6,14.2,7.6c4.8,0,10.2-2,10.2-5.8c0-4.1-3.5-6.1-10.7-7.5
				c-10.1-2-17.2-6-17.2-14.9c0-6.8,6.8-13.5,17.3-13.5c11.1,0,17.4,7.1,17.4,7.1l-5.6,5.8c0,0-4.7-5.2-11.8-5.2c-6,0-9,3-9,6
				c0,3.6,3.7,5.5,11.4,7.1c9,1.9,16.6,5.3,16.6,14.9c0,9.1-9.6,13.7-18.6,13.7c-13.2,0-20.1-9.9-20.1-9.9L141.5,119.5z"/>
			<path style="fill:#849E74;" d="M227,103.4v30.2h-8.5v-28.8c0-8-5-11.5-11.3-11.5c-7.6,0-11.7,7.9-11.7,7.9v32.4h-8.5V62.4h8.5
				v29.9c1.4-2,5.7-6.9,13.8-6.9C218.6,85.4,227,91.8,227,103.4z"/>
			<path style="fill:#849E74;" d="M246.2,65.8c3.2,0,5.8,2.6,5.8,5.8c0,3.2-2.6,5.8-5.8,5.8c-3.2,0-5.8-2.6-5.8-5.8
				C240.4,68.4,243,65.8,246.2,65.8z M241.9,86.6h8.5v47h-8.5V86.6z"/>
			<path style="fill:#849E74;" d="M273.4,85.9v6.8c0,0,4.7-8,15.9-8c12.7,0,22.8,10.9,22.8,24.7c0,13.8-10.1,24.7-22.8,24.7
				c-8.6,0-13.5-4.9-15.2-7v29.2h-8.5V85.9H273.4z M274.1,118.9c0,0,4.5,8,13.8,8c9.6,0,15.6-7.5,15.6-16.8c0-9.3-6-16.8-15.6-16.8
				c-9.4,0-13.8,8-13.8,8V118.9z"/>
		</g>
		<g>
			<path style="fill:#849E74;" d="M61.1,164.4h4.1v20.1h10.2v3.9H61.1V164.4z"/>
			<path style="fill:#849E74;" d="M93.8,164.4H98l9.4,24.1h-4.2l-2.2-5.7H90.8l-2.2,5.7h-4.2L93.8,164.4z M92.3,179h7.2l-3.6-9.4
				L92.3,179z"/>
			<path style="fill:#849E74;" d="M121.1,164.4l12,16.6v-16.6h4.1v24.1h-3.7l-12-16.5v16.5h-4.1v-24.1H121.1z"/>
			<path style="fill:#849E74;" d="M169.5,176.5c0,6.9-4.9,12-11.9,12h-7.8v-24.1h7.8C164.6,164.4,169.5,169.5,169.5,176.5z
				 M165.3,176.5c0-4.4-3-8.1-7.6-8.1h-3.7v16.2h3.7C162.3,184.6,165.3,180.8,165.3,176.5z"/>
			<path style="fill:#849E74;" d="M181,164.4h4.1v24.1H181V164.4z"/>
			<path style="fill:#849E74;" d="M201.5,164.4l12,16.6v-16.6h4.1v24.1H214L202,172v16.5h-4.1v-24.1H201.5z"/>
			<path style="fill:#849E74;" d="M246.4,183.9v-5.1h-5.5v-3.9h9.5v10.9c0,0-3.1,3-8.9,3c-7,0-12.7-5.3-12.7-12.4
				c0-7.1,5.4-12.4,12.5-12.4c5.9,0,8.9,3.6,8.9,3.6l-2.8,2.8c0,0-2-2.5-6.1-2.5c-4.8,0-8.3,4-8.3,8.6c0,4.6,3.6,8.6,8.5,8.6
				C245,185.1,246.4,183.9,246.4,183.9z"/>
		</g>
	</g>
	<g>
		<g>
			<path style="fill:#849E74;" d="M141.2,212.9c0,0-1-1.3-3-1.3c-2.4,0-4,2.1-4,4.4c0,2.3,1.6,4.4,4,4.4c2,0,3.2-1.5,3.2-1.5
				l0.9,0.9c0,0-1.5,1.8-4.1,1.8c-3.2,0-5.4-2.5-5.4-5.7c0-3.2,2.3-5.7,5.4-5.7c2.6,0,4,1.7,4,1.7L141.2,212.9z"/>
			<path style="fill:#849E74;" d="M148.3,216.6c-1.6-0.7-3-1.5-3-3.4c0-1.3,1.1-2.9,3.2-2.9c2.1,0,3.1,1.6,3.1,1.6l-1,0.8
				c0,0-0.8-1.1-2.1-1.1c-1.2,0-1.9,0.9-1.9,1.6c0,1.1,0.9,1.6,2.5,2.3c1.7,0.8,2.7,1.5,2.7,3.3c0,1.8-1.5,3-3.4,3
				c-2.6,0-3.5-2.3-3.5-2.3l1.1-0.7c0,0,0.7,1.7,2.4,1.7c1.1,0,2.1-0.6,2.1-1.7C150.4,217.6,149.5,217.1,148.3,216.6z"/>
		</g>
		<g>
			<path style="fill:#849E74;" d="M165.4,212.9c0,0-1-1.3-3-1.3c-2.4,0-4,2.1-4,4.4c0,2.3,1.6,4.4,4,4.4c2,0,3.2-1.5,3.2-1.5
				l0.9,0.9c0,0-1.5,1.8-4.1,1.8c-3.2,0-5.4-2.5-5.4-5.7c0-3.2,2.3-5.7,5.4-5.7c2.6,0,4,1.7,4,1.7L165.4,212.9z"/>
			<path style="fill:#849E74;" d="M179.3,216c0,3.2-2.3,5.7-5.4,5.7c-3.2,0-5.4-2.5-5.4-5.7c0-3.2,2.3-5.7,5.4-5.7
				C177.1,210.3,179.3,212.8,179.3,216z M177.9,216c0-2.3-1.6-4.4-4-4.4s-4,2.1-4,4.4c0,2.3,1.6,4.4,4,4.4S177.9,218.4,177.9,216z"
				/>
		</g>
	</g>
	<g>
		<path style="fill:#849E74;" d="M155.9,24.1c6.5,0,12.7,2.5,17.4,6.9l4.2-4.2c-4.5-4.3-10.2-7.1-16.3-8.1l12.7-14.7L169.4,0
			l-13.7,15.9L142,0l-4.5,3.9l12.7,14.8c-5.9,1.1-11.3,3.8-15.7,7.9l4.2,4.2C143.4,26.5,149.5,24.1,155.9,24.1z"/>
		<polygon style="fill:#849E74;" points="155.7,26.9 145.7,37.7 141.7,42.1 136.5,47.7 140.8,51.7 146.2,46 150.3,41.6 155.7,35.6 
			161.5,41.8 165.6,46.3 170.6,51.7 175,47.7 170.2,42.5 166.1,38.1 		"/>
	</g>
</g>
</svg>
