<?xml version="1.0" encoding="UTF-8"?>
<svg id="Layer_2" data-name="Layer 2" xmlns="http://www.w3.org/2000/svg" viewBox="0 0 300 300">
  <defs>
    <style>
      .cls-1 {
        fill: #323e48;
      }

      .cls-1, .cls-2 {
        stroke-width: 0px;
      }

      .cls-2 {
        fill: none;
      }
    </style>
  </defs>
  <g id="Layer_1-2" data-name="Layer 1">
    <rect class="cls-2" width="300" height="300"/>
    <g>
      <path class="cls-1" d="M83.64,189.73l1.83,1.82s-2.1,2.77-6.24,2.77c-4.68,0-8.2-3.58-8.2-8.37s3.52-8.37,8.2-8.37c3.86,0,5.97,2.57,5.97,2.57l-1.9,1.82s-1.49-1.76-4.14-1.76c-3.19,0-5.42,2.63-5.42,5.74s2.17,5.74,5.42,5.74c2.98,0,4.47-1.96,4.47-1.96Z"/>
      <path class="cls-1" d="M97.19,187.64h4.88l-2.44-6.28-2.44,6.28ZM98.21,177.85h2.85l6.3,16.14h-2.78l-1.49-3.85h-6.91l-1.49,3.85h-2.78l6.3-16.14Z"/>
      <polygon class="cls-1" points="117.6 184.46 123.97 184.46 123.97 187.1 117.6 187.1 117.6 194.05 114.82 194.05 114.82 177.92 124.44 177.92 124.44 180.55 117.6 180.55 117.6 184.46 117.6 184.46"/>
      <polygon class="cls-1" points="135.15 184.4 141.66 184.4 141.66 187.03 135.15 187.03 135.15 191.35 142.34 191.35 142.34 193.98 132.38 193.98 132.38 177.85 142.2 177.85 142.2 180.48 135.15 180.48 135.15 184.4"/>
      <polygon class="cls-1" points="164.51 186.96 160.44 186.96 160.44 191.35 157.66 191.35 157.66 186.96 153.59 186.96 153.59 184.4 157.66 184.4 157.66 180.14 160.44 180.14 160.44 184.4 164.51 184.4 164.51 186.96"/>
      <path class="cls-1" d="M184.91,189.26c0-1.55-1.15-2.16-2.71-2.16h-2.98v4.32h2.98c1.56-.07,2.71-.68,2.71-2.16ZM181.66,184.46c1.56,0,2.44-.61,2.44-1.96,0-1.42-1.08-1.96-2.44-1.96h-2.37v3.98h2.37v-.07ZM176.5,177.85h5.29c2.64,0,5.15,1.22,5.15,4.59,0,1.96-1.49,2.9-1.69,2.97.2.07,2.51.88,2.51,3.78s-2.37,4.79-5.42,4.79h-5.83v-16.14Z"/>
      <path class="cls-1" d="M199.28,187.64h4.88l-2.44-6.28-2.44,6.28ZM200.3,177.85h2.85l6.3,16.14h-2.78l-1.49-3.85h-6.85l-1.49,3.85h-2.78l6.24-16.14Z"/>
      <path class="cls-1" d="M224.77,182.91c0-1.62-1.08-2.43-2.91-2.43h-2.17v4.79h2.17c1.83,0,2.91-.81,2.91-2.36ZM216.91,177.85h5.36c3.19,0,5.36,2.09,5.36,5,0,2.43-1.29,4.25-3.59,4.86l4.07,6.28h-3.25l-3.86-6.08h-1.29v6.08h-2.78v-16.14Z"/>
      <path class="cls-1" d="M57.47,129.04v2.3c-8.07-4.52-18.03-4.46-25.96.27v-24.71h-6.51v49.28h6.51v-17.62c7.46-6.35,18.44-6.48,26.03-.41v18.03h6.51v-49.28h-6.51v22.14h-.07Z"/>
      <path class="cls-1" d="M110.82,151.05c-9.83,0-16.07-6.14-16.07-19.38.07-13.16,6.51-19.92,16-19.92s15.93,6.82,15.93,19.92-6.64,19.38-15.86,19.38ZM111.09,105.68c-13.96,0-22.98,9.59-22.98,26.13s8.07,25.32,22.1,25.32c13.02,0,23.12-8.78,23.12-25.65.07-16.74-8.41-25.79-22.23-25.79Z"/>
      <polygon class="cls-1" points="183.08 144.7 162.81 106.89 157.93 106.89 157.93 156.18 163.9 156.18 163.9 122.22 182.13 156.18 183.35 156.18 201.59 122.22 201.59 156.18 207.48 156.18 207.48 106.89 203.35 106.89 183.08 144.7"/>
      <path class="cls-1" d="M242.12,142.81l1.15-2.97,8.61-22.48,9.15,22.48,1.02,2.43c-6.44-2.36-13.56-2.16-19.93.54ZM275,156.18l-20.4-49.35h-5.08l-19.18,49.35h6.71l1.69-4.32c7.46-6.89,18.84-7.29,26.78-1.15l2.24,5.47h7.25Z"/>
    </g>
  </g>
</svg>